<?xml version="1.0" encoding="UTF-8" standalone="no"?>
<svg
   width="158"
   height="114"
   viewBox="0 0 158 114"
   fill="none"
   version="1.1"
   id="svg17142"
   sodipodi:docname="logo_1.svg"
   inkscape:version="1.1 (c68e22c387, 2021-05-23)"
   xmlns:inkscape="http://www.inkscape.org/namespaces/inkscape"
   xmlns:sodipodi="http://sodipodi.sourceforge.net/DTD/sodipodi-0.dtd"
   xmlns="http://www.w3.org/2000/svg"
   xmlns:svg="http://www.w3.org/2000/svg">
  <sodipodi:namedview
     id="namedview17144"
     pagecolor="#ffffff"
     bordercolor="#666666"
     borderopacity="1.0"
     inkscape:pageshadow="2"
     inkscape:pageopacity="0.0"
     inkscape:pagecheckerboard="0"
     showgrid="false"
     inkscape:zoom="2.5182926"
     inkscape:cx="-52.615014"
     inkscape:cy="109.39952"
     inkscape:window-width="1920"
     inkscape:window-height="1001"
     inkscape:window-x="-9"
     inkscape:window-y="-9"
     inkscape:window-maximized="1"
     inkscape:current-layer="svg17142" />
  <g
     clip-path="url(#clip0)"
     id="g17095">
    <path
       id="circle17079"
       style="fill:url(#paint0_linear);fill-opacity:1"
       d="M 72 4 A 22 22 0 0 0 50 26 A 22 22 0 0 0 72 48 A 22 22 0 0 0 94 26 A 22 22 0 0 0 72 4 z M 72 48 L 37.5 48 L 25 48 L 25 81.962891 L 25 84 C 48.7188 77.0602 71.883791 73.104969 79.337891 71.855469 C 87.100391 70.554269 94 69.5 94 69.5 L 94 68.050781 L 94 48 L 72 48 z M 37.5 48 A 12.5 12.5 0 0 0 50 35.5 A 12.5 12.5 0 0 0 37.5 23 A 12.5 12.5 0 0 0 25 35.5 A 12.5 12.5 0 0 0 37.5 48 z M 139 32 L 96 57.835938 L 96 69 L 108.4707 67.402344 L 117.07031 66.521484 L 139 64.759766 L 139 32 z M 67.349609 80.720703 C 67.045609 81.808703 66.237781 82.816141 64.925781 83.744141 C 63.613781 84.656141 62.205172 85.111328 60.701172 85.111328 L 61.013672 89.144531 C 62.133672 89.144531 63.206469 88.855297 64.230469 88.279297 C 65.254469 87.703297 65.957797 87.104469 66.341797 86.480469 L 64.300781 98 L 68.646484 98 L 71.669922 80.720703 L 67.349609 80.720703 z M 108.30859 82.460938 C 104.56259 82.460937 102.37505 84.247013 101.74805 87.820312 L 101.04883 91.820312 C 100.94283 92.393613 100.88867 92.920391 100.88867 93.400391 C 100.88867 94.480391 101.14797 95.326153 101.66797 95.939453 C 102.42797 96.832753 103.77403 97.279297 105.70703 97.279297 C 107.64103 97.279297 109.14103 96.832753 110.20703 95.939453 C 111.27403 95.046153 111.96711 93.673613 112.28711 91.820312 L 112.98828 87.820312 C 113.08228 87.313613 113.12891 86.840391 113.12891 86.400391 C 113.12891 83.773691 111.52259 82.460938 108.30859 82.460938 z M 153.05273 82.460938 C 148.74573 82.460937 146.5918 84.133769 146.5918 87.480469 C 146.5918 88.267169 146.81748 88.927638 147.27148 89.460938 C 147.72448 89.980937 148.27211 90.365841 148.91211 90.619141 C 149.56511 90.859141 150.21156 91.073066 150.85156 91.259766 C 151.50456 91.446466 152.05772 91.680938 152.51172 91.960938 C 152.96472 92.240937 153.19141 92.599062 153.19141 93.039062 C 153.19141 93.865763 152.52441 94.279297 151.19141 94.279297 C 149.87141 94.279297 149.21289 93.820391 149.21289 92.900391 C 149.21289 92.793691 149.22495 92.672362 149.25195 92.539062 L 149.29297 92.300781 L 145.69141 92.300781 L 145.63281 92.619141 C 145.55281 93.059141 145.51172 93.466544 145.51172 93.839844 C 145.51172 94.826544 145.79709 95.600156 146.37109 96.160156 C 147.14409 96.906856 148.58441 97.279297 150.69141 97.279297 C 152.79741 97.279297 154.35709 96.873847 155.37109 96.060547 C 156.38409 95.233847 156.89258 93.972597 156.89258 92.279297 C 156.89258 91.439297 156.66589 90.760234 156.21289 90.240234 C 155.75889 89.706934 155.20573 89.326309 154.55273 89.099609 C 153.89873 88.872909 153.2448 88.685762 152.5918 88.539062 C 151.9518 88.379062 151.40417 88.167091 150.95117 87.900391 C 150.49717 87.633691 150.27148 87.273613 150.27148 86.820312 C 150.27148 85.913613 150.98511 85.460938 152.41211 85.460938 C 153.54511 85.460938 154.11133 85.893066 154.11133 86.759766 C 154.11133 87.226466 153.96488 87.613222 153.67188 87.919922 L 157.21289 87.919922 L 157.37109 87.679688 C 157.47709 87.532987 157.57788 87.286153 157.67188 86.939453 C 157.77788 86.579453 157.83203 86.207013 157.83203 85.820312 C 157.83203 84.767012 157.42433 83.946075 156.61133 83.359375 C 155.81133 82.759375 154.62573 82.460938 153.05273 82.460938 z M 85.939453 82.599609 L 83.400391 97 L 87 97 L 88.439453 88.880859 L 89.798828 93.720703 L 92.419922 93.720703 L 95.5 88.880859 L 94.058594 97 L 97.679688 97 L 100.2207 82.599609 L 96.439453 82.599609 L 91.839844 89.5 L 89.699219 82.599609 L 85.939453 82.599609 z M 115.23438 82.599609 L 115.39453 97 L 121.79492 97 L 127.25391 82.599609 L 123.35352 82.599609 L 119.55469 93.5 L 119.09375 93.5 L 119.1543 82.599609 L 115.23438 82.599609 z M 129.14258 82.599609 L 126.60352 97 L 130.22266 97 L 132.74219 82.599609 L 129.14258 82.599609 z M 135.58789 82.599609 L 133.04883 97 L 143.08789 97 L 143.64844 93.880859 L 137.20703 93.880859 L 137.60742 91.539062 L 142.92773 91.539062 L 143.48828 88.419922 L 138.16797 88.419922 L 138.62891 85.720703 L 145.06836 85.720703 L 145.62891 82.599609 L 135.58789 82.599609 z M 46.324219 84.097656 C 43.689519 84.097656 41.661534 84.730794 40.240234 85.996094 C 38.836234 87.244094 38.132812 88.916372 38.132812 91.013672 C 38.132812 91.672372 38.185063 92.210953 38.289062 92.626953 L 42.890625 92.626953 C 42.769225 92.384253 42.708984 92.010513 42.708984 91.507812 C 42.708984 90.485113 42.978225 89.671153 43.515625 89.064453 C 44.052925 88.440453 44.806644 88.128906 45.777344 88.128906 C 47.181344 88.128906 47.882812 88.752 47.882812 90 C 47.882812 90.728 47.631506 91.387263 47.128906 91.976562 C 46.643506 92.565862 46.028503 93.050341 45.283203 93.431641 C 44.537803 93.795641 43.705709 94.219778 42.787109 94.705078 C 41.885709 95.173078 41.027491 95.651419 40.212891 96.136719 C 39.398191 96.622019 38.670597 97.297363 38.029297 98.164062 C 37.387897 99.013362 36.97185 99.984172 36.78125 101.07617 L 36.443359 103 L 50.041016 103 L 50.769531 98.943359 L 43.828125 98.943359 L 43.828125 98.917969 C 43.880125 98.744669 44.217797 98.493363 44.841797 98.164062 C 45.465797 97.817363 46.201381 97.401316 47.050781 96.916016 C 47.900081 96.413316 48.750209 95.832528 49.599609 95.173828 C 50.448909 94.497828 51.168413 93.639609 51.757812 92.599609 C 52.347113 91.542309 52.640625 90.406659 52.640625 89.193359 C 52.640625 85.796059 50.536219 84.097656 46.324219 84.097656 z M 107.78711 85.560547 C 108.88111 85.560547 109.42773 86.099687 109.42773 87.179688 C 109.42773 87.392988 109.40719 87.633691 109.36719 87.900391 L 108.6875 91.740234 C 108.5275 92.673534 108.24766 93.313456 107.84766 93.660156 C 107.44766 94.006856 106.91505 94.179688 106.24805 94.179688 C 105.12805 94.179688 104.56836 93.712597 104.56836 92.779297 C 104.56836 92.419297 104.59544 92.073534 104.64844 91.740234 L 105.32812 87.900391 C 105.59512 86.367091 106.41411 85.587247 107.78711 85.560547 z M 22.119141 90.189453 C 19.159141 90.189453 16.888594 90.829375 15.308594 92.109375 C 13.728594 93.369375 12.939453 95.089531 12.939453 97.269531 C 12.939453 97.849531 12.987891 98.319687 13.087891 98.679688 L 18.398438 98.679688 C 18.298438 98.379687 18.248047 98.079297 18.248047 97.779297 C 18.248047 96.879297 18.509297 96.170391 19.029297 95.650391 C 19.549297 95.110391 20.248906 94.839844 21.128906 94.839844 C 22.008906 94.839844 22.669375 95.020859 23.109375 95.380859 C 23.569375 95.740859 23.798828 96.289297 23.798828 97.029297 C 23.798828 97.769297 23.43875 98.459609 22.71875 99.099609 C 22.01875 99.719609 21.149375 100.04055 20.109375 100.06055 L 17.708984 100.06055 L 17.109375 103.33008 L 20.138672 103.33008 C 21.658672 103.33008 22.417969 103.91031 22.417969 105.07031 C 22.417969 105.83031 22.117578 106.47023 21.517578 106.99023 C 20.917578 107.51023 20.167578 107.76953 19.267578 107.76953 C 17.547578 107.76953 16.689453 107.10906 16.689453 105.78906 C 16.689453 105.58906 16.708047 105.38016 16.748047 105.16016 L 11.347656 105.16016 C 11.227656 105.80016 11.167969 106.40094 11.167969 106.96094 C 11.167969 108.52094 11.628828 109.73914 12.548828 110.61914 C 13.788828 111.81914 15.717891 112.41992 18.337891 112.41992 C 24.617891 112.41992 27.757812 110.05984 27.757812 105.33984 C 27.757813 104.27984 27.477969 103.41977 26.917969 102.75977 C 26.357969 102.09977 25.607969 101.76953 24.667969 101.76953 L 24.667969 101.67969 C 25.887969 101.67969 26.968203 101.04906 27.908203 99.789062 C 28.848203 98.529063 29.318359 97.189531 29.318359 95.769531 C 29.318359 94.029531 28.708281 92.669453 27.488281 91.689453 C 26.268281 90.689453 24.479141 90.189453 22.119141 90.189453 z " />
  </g>
  <defs
     id="defs17140">
    <linearGradient
       id="paint0_linear"
       x1="12.707023"
       y1="59.564167"
       x2="94"
       y2="48"
       gradientUnits="userSpaceOnUse">
      <stop
         stop-color="#AAB2FF"
         id="stop17097" />
      <stop
         offset="1"
         stop-color="#ECA0FF"
         id="stop17099" />
    </linearGradient>
    <linearGradient
       id="paint1_linear"
       x1="72"
       y1="4"
       x2="72"
       y2="48"
       gradientUnits="userSpaceOnUse">
      <stop
         stop-color="#AAB2FF"
         id="stop17102" />
      <stop
         offset="1"
         stop-color="#ECA0FF"
         id="stop17104" />
    </linearGradient>
    <linearGradient
       id="paint2_linear"
       x1="59.5"
       y1="48"
       x2="59.5"
       y2="84"
       gradientUnits="userSpaceOnUse">
      <stop
         stop-color="#AAB2FF"
         id="stop17107" />
      <stop
         offset="1"
         stop-color="#ECA0FF"
         id="stop17109" />
    </linearGradient>
    <linearGradient
       id="paint3_linear"
       x1="117.5"
       y1="32"
       x2="117.5"
       y2="69"
       gradientUnits="userSpaceOnUse">
      <stop
         stop-color="#AAB2FF"
         id="stop17112" />
      <stop
         offset="1"
         stop-color="#ECA0FF"
         id="stop17114" />
    </linearGradient>
    <linearGradient
       id="paint4_linear"
       x1="20"
       y1="81"
       x2="20"
       y2="125"
       gradientUnits="userSpaceOnUse">
      <stop
         stop-color="#AAB2FF"
         id="stop17117" />
      <stop
         offset="1"
         stop-color="#ECA0FF"
         id="stop17119" />
    </linearGradient>
    <linearGradient
       id="paint5_linear"
       x1="44.5"
       y1="76"
       x2="44.5"
       y2="114"
       gradientUnits="userSpaceOnUse">
      <stop
         stop-color="#AAB2FF"
         id="stop17122" />
      <stop
         offset="1"
         stop-color="#ECA0FF"
         id="stop17124" />
    </linearGradient>
    <linearGradient
       id="paint6_linear"
       x1="65.5"
       y1="73"
       x2="65.5"
       y2="108"
       gradientUnits="userSpaceOnUse">
      <stop
         stop-color="#AAB2FF"
         id="stop17127" />
      <stop
         offset="1"
         stop-color="#ECA0FF"
         id="stop17129" />
    </linearGradient>
    <linearGradient
       id="paint7_linear"
       x1="120.5"
       y1="76"
       x2="120.5"
       y2="105"
       gradientUnits="userSpaceOnUse">
      <stop
         stop-color="#AAB2FF"
         id="stop17132" />
      <stop
         offset="1"
         stop-color="#ECA0FF"
         id="stop17134" />
    </linearGradient>
    <clipPath
       id="clip0">
      <rect
         width="158"
         height="114"
         fill="white"
         id="rect17137" />
    </clipPath>
  </defs>
</svg>
